<mxfile host="www.draw.io" modified="2019-11-08T01:20:06.706Z" agent="Mozilla/5.0 (Windows NT 6.1; Win64; x64) AppleWebKit/537.36 (KHTML, like Gecko) Chrome/78.0.3904.97 Safari/537.36" etag="TjHRuiTn5QE_qNy_BWeS" version="12.2.2" type="github" pages="2">
  <diagram id="qW80aLDOBswDMrLjUoGH" name="01_usecase_dailySchedule">
    <mxGraphModel dx="1408" dy="758" grid="1" gridSize="10" guides="1" tooltips="1" connect="1" arrows="1" fold="1" page="1" pageScale="1" pageWidth="1169" pageHeight="827" math="0" shadow="0">
      <root>
        <mxCell id="0"/>
        <mxCell id="1" parent="0"/>
        <mxCell id="G3H-hYhAijRE4rnS9HM1-1" value="HR담당자" style="shape=umlActor;verticalLabelPosition=bottom;labelBackgroundColor=#ffffff;verticalAlign=top;html=1;" vertex="1" parent="1">
          <mxGeometry x="200" y="250" width="30" height="60" as="geometry"/>
        </mxCell>
        <mxCell id="G3H-hYhAijRE4rnS9HM1-2" value="개인근무스케쥴관리&lt;br&gt;근무자생성" style="ellipse;whiteSpace=wrap;html=1;" vertex="1" parent="1">
          <mxGeometry x="350" y="210" width="140" height="70" as="geometry"/>
        </mxCell>
        <mxCell id="G3H-hYhAijRE4rnS9HM1-3" value="&lt;h1&gt;근무조 관리&lt;/h1&gt;&lt;h1&gt;&lt;font style=&quot;font-size: 12px ; font-weight: normal&quot;&gt;&lt;font&gt;1. 개인근무스케쥴관리 프로그램에서 근무자 생성(반별로 순번 조정 필요 &amp;gt; HR 담당자가 업무수행, 매월 말일 생성 필요)&lt;br&gt;&lt;/font&gt;&lt;font&gt;2. 일일근무계획신청(개인근무스케쥴관리에서 생성된 내역을 바탕으로 기본 세팅, 개개인별 실제 일일근무계획은 각 반/조장들이 수정&lt;br&gt;&lt;/font&gt;3. 일일근로계산 시 일일근무계획의 내용을 바탕으로 근무조 세팅&lt;/font&gt;&lt;/h1&gt;" style="text;html=1;strokeColor=none;fillColor=none;spacing=5;spacingTop=-20;whiteSpace=wrap;overflow=hidden;rounded=0;" vertex="1" parent="1">
          <mxGeometry x="20" y="10" width="760" height="170" as="geometry"/>
        </mxCell>
        <mxCell id="G3H-hYhAijRE4rnS9HM1-4" value="" style="endArrow=classic;html=1;entryX=0;entryY=0.5;entryDx=0;entryDy=0;exitX=0.5;exitY=0.5;exitDx=0;exitDy=0;exitPerimeter=0;" edge="1" parent="1" source="G3H-hYhAijRE4rnS9HM1-1" target="G3H-hYhAijRE4rnS9HM1-2">
          <mxGeometry width="50" height="50" relative="1" as="geometry">
            <mxPoint x="230" y="245" as="sourcePoint"/>
            <mxPoint x="210" y="315" as="targetPoint"/>
          </mxGeometry>
        </mxCell>
        <mxCell id="G3H-hYhAijRE4rnS9HM1-5" value="반/조장" style="shape=umlActor;verticalLabelPosition=bottom;labelBackgroundColor=#ffffff;verticalAlign=top;html=1;" vertex="1" parent="1">
          <mxGeometry x="200" y="465" width="30" height="60" as="geometry"/>
        </mxCell>
        <mxCell id="G3H-hYhAijRE4rnS9HM1-6" value="일일근무계획신청" style="ellipse;whiteSpace=wrap;html=1;" vertex="1" parent="1">
          <mxGeometry x="350" y="415" width="140" height="70" as="geometry"/>
        </mxCell>
        <mxCell id="G3H-hYhAijRE4rnS9HM1-7" value="" style="endArrow=classic;html=1;entryX=0;entryY=0.5;entryDx=0;entryDy=0;exitX=0.5;exitY=0.5;exitDx=0;exitDy=0;exitPerimeter=0;" edge="1" parent="1" target="G3H-hYhAijRE4rnS9HM1-6" source="G3H-hYhAijRE4rnS9HM1-5">
          <mxGeometry width="50" height="50" relative="1" as="geometry">
            <mxPoint x="230" y="450" as="sourcePoint"/>
            <mxPoint x="210" y="520" as="targetPoint"/>
          </mxGeometry>
        </mxCell>
        <mxCell id="G3H-hYhAijRE4rnS9HM1-8" value="일일근무계획수정" style="ellipse;whiteSpace=wrap;html=1;" vertex="1" parent="1">
          <mxGeometry x="350" y="515" width="140" height="70" as="geometry"/>
        </mxCell>
        <mxCell id="G3H-hYhAijRE4rnS9HM1-9" value="일일근무계획수정&lt;br&gt;(관리자)" style="ellipse;whiteSpace=wrap;html=1;" vertex="1" parent="1">
          <mxGeometry x="350" y="295" width="140" height="70" as="geometry"/>
        </mxCell>
        <mxCell id="G3H-hYhAijRE4rnS9HM1-10" value="" style="endArrow=classic;html=1;entryX=0;entryY=0.5;entryDx=0;entryDy=0;exitX=0.5;exitY=0.5;exitDx=0;exitDy=0;exitPerimeter=0;" edge="1" parent="1" source="G3H-hYhAijRE4rnS9HM1-1" target="G3H-hYhAijRE4rnS9HM1-9">
          <mxGeometry width="50" height="50" relative="1" as="geometry">
            <mxPoint x="230" y="255" as="sourcePoint"/>
            <mxPoint x="360" y="255" as="targetPoint"/>
          </mxGeometry>
        </mxCell>
        <mxCell id="G3H-hYhAijRE4rnS9HM1-11" value="" style="endArrow=classic;html=1;entryX=0;entryY=0.5;entryDx=0;entryDy=0;exitX=0.5;exitY=0.5;exitDx=0;exitDy=0;exitPerimeter=0;" edge="1" parent="1" source="G3H-hYhAijRE4rnS9HM1-5" target="G3H-hYhAijRE4rnS9HM1-8">
          <mxGeometry width="50" height="50" relative="1" as="geometry">
            <mxPoint x="230" y="460" as="sourcePoint"/>
            <mxPoint x="360" y="460" as="targetPoint"/>
          </mxGeometry>
        </mxCell>
      </root>
    </mxGraphModel>
  </diagram>
  <diagram id="QfxuiivtcKWAh0jyzOxG" name="02_dd">
    <mxGraphModel dx="1408" dy="758" grid="1" gridSize="10" guides="1" tooltips="1" connect="1" arrows="1" fold="1" page="1" pageScale="1" pageWidth="1169" pageHeight="827" math="0" shadow="0">
      <root>
        <mxCell id="8GUsDry8KkPkdYhatiVx-0"/>
        <mxCell id="8GUsDry8KkPkdYhatiVx-1" parent="8GUsDry8KkPkdYhatiVx-0"/>
      </root>
    </mxGraphModel>
  </diagram>
</mxfile>
